<svg width="554" height="110" viewBox="0 0 554 110" fill="none" xmlns="http://www.w3.org/2000/svg">
<path d="M65.3485 9.80091C65.3485 15.1566 61.0068 19.4983 55.6511 19.4983C50.2954 19.4983 45.9537 15.1566 45.9537 9.80091C45.9537 4.44519 50.2954 0.103516 55.6511 0.103516C61.0068 0.103516 65.3485 4.44519 65.3485 9.80091Z" fill="url(#paint0_angular_843_78)"/>
<path d="M65.3485 100.31C65.3485 105.666 61.0068 110.007 55.6511 110.007C50.2954 110.007 45.9537 105.666 45.9537 100.31C45.9537 94.9542 50.2954 90.6125 55.6511 90.6125C61.0068 90.6125 65.3485 94.9542 65.3485 100.31Z" fill="url(#paint1_angular_843_78)"/>
<path d="M33.0239 22.7308C33.0239 28.0865 28.6822 32.4282 23.3265 32.4282C17.9707 32.4282 13.6291 28.0865 13.6291 22.7308C13.6291 17.375 17.9707 13.0334 23.3265 13.0334C28.6822 13.0334 33.0239 17.375 33.0239 22.7308Z" fill="url(#paint2_angular_843_78)"/>
<path d="M97.6731 87.38C97.6731 92.7358 93.3315 97.0774 87.9757 97.0774C82.62 97.0774 78.2783 92.7358 78.2783 87.38C78.2783 82.0243 82.62 77.6826 87.9757 77.6826C93.3315 77.6826 97.6731 82.0243 97.6731 87.38Z" fill="url(#paint3_angular_843_78)"/>
<path d="M33.0239 87.38C33.0239 92.7358 28.6822 97.0774 23.3265 97.0774C17.9707 97.0774 13.6291 92.7358 13.6291 87.38C13.6291 82.0243 17.9707 77.6826 23.3265 77.6826C28.6822 77.6826 33.0239 82.0243 33.0239 87.38Z" fill="url(#paint4_angular_843_78)"/>
<path d="M110.603 55.0554C110.603 60.4111 106.261 64.7528 100.906 64.7528C95.5499 64.7528 91.2082 60.4111 91.2082 55.0554C91.2082 49.6997 95.5499 45.358 100.906 45.358C106.261 45.358 110.603 49.6997 110.603 55.0554Z" fill="url(#paint5_angular_843_78)"/>
<path d="M20.094 55.0554C20.094 60.4111 15.7523 64.7528 10.3966 64.7528C5.04089 64.7528 0.699219 60.4111 0.699219 55.0554C0.699219 49.6997 5.04089 45.358 10.3966 45.358C15.7523 45.358 20.094 49.6997 20.094 55.0554Z" fill="url(#paint6_angular_843_78)"/>
<path d="M88.4109 6.20928C86.7976 19.8436 85.4891 21.1513 71.8549 22.7653C71.8835 22.7684 71.9113 22.7723 71.9391 22.7754H71.9399C85.4945 24.3847 86.8007 25.7157 88.4109 39.3213C90.0241 25.687 91.3326 24.3785 104.967 22.7653C91.3326 21.1513 90.0241 19.8436 88.4109 6.20928Z" fill="url(#paint7_angular_843_78)"/>
<path d="M176.787 24.9253C188.74 24.9253 196.353 30.9521 196.353 40.8281H187.777C187.777 35.696 183.304 32.4715 176.686 32.4715C171.149 32.4715 165.645 34.7337 165.645 39.5451C165.645 43.9006 169.95 44.6266 177.327 45.7239L179.573 46.0446C187.693 47.2601 198.042 48.8302 198.042 60.0567C198.042 70.1352 189.668 75.2336 177.31 75.2336C163.856 75.2336 156.09 69.2067 156.09 58.8918H164.666C164.666 64.3954 169.477 67.6873 177.226 67.6873C183.844 67.6873 189.297 65.2732 189.297 60.0905C189.297 55.3128 184.874 54.6038 178.121 53.6246L175.285 53.2026C167.164 52.0209 156.9 50.569 156.9 39.9334C156.9 30.0574 165.729 24.9253 176.787 24.9253Z" fill="url(#paint8_linear_843_78)"/>
<path d="M209.136 55.5998C209.136 63.1967 212.917 67.738 219.18 67.738C224.566 67.738 227.402 64.3278 228.246 59.8541H236.704C235.573 68.6834 229.141 75.2336 219.164 75.2336C208.157 75.2336 200.627 67.4172 200.627 55.5998C200.627 43.7825 208.14 35.983 219.164 35.983C229.158 35.983 235.573 42.5332 236.704 51.3625H228.246C227.419 46.8887 224.583 43.4786 219.18 43.4786C212.917 43.4786 209.136 48.0029 209.136 55.5998Z" fill="url(#paint9_linear_843_78)"/>
<path d="M239.688 50.2989C239.688 41.5034 246.374 35.983 257.111 35.983C268.303 35.983 274.989 41.993 274.989 52.139V74.2207H266.514V64.4629C264.775 71.1481 259.271 75.2336 251.708 75.2336C243.841 75.2336 238.591 70.7936 238.591 64.1252C238.591 57.2036 244.246 53 253.582 53H266.514V52.139C266.514 46.5173 262.884 43.0565 256.942 43.0565C250.898 43.0565 248.146 45.8758 248.146 50.2989H239.688ZM266.514 58.9425H254.055C249.463 58.9425 247.032 60.5294 247.032 63.5513C247.032 66.7251 249.75 68.4977 254.612 68.4977C261.534 68.4977 266.514 64.9356 266.514 60.006V58.9425Z" fill="url(#paint10_linear_843_78)"/>
<path d="M287.498 24.25V74.2207H279.023V24.25H287.498Z" fill="url(#paint11_linear_843_78)"/>
<path d="M318.714 61.7449H326.885C324.91 70.1521 318.292 75.2336 309.395 75.2336C298.321 75.2336 290.859 67.3159 290.859 55.5661C290.859 43.85 298.236 35.983 309.193 35.983C320.031 35.983 327.054 43.6474 327.054 55.4817C327.054 56.3595 327.02 57.2205 326.936 58.1828H299.232C299.941 64.3785 303.773 68.0925 309.631 68.0925C314.071 68.0925 317.06 65.9485 318.714 61.7449ZM299.35 52.1053H318.663C317.769 46.2135 314.51 43.0565 309.243 43.0565C303.841 43.0565 300.279 46.3992 299.35 52.1053Z" fill="url(#paint12_linear_843_78)"/>
<path d="M350.012 24.9253C361.965 24.9253 369.578 30.9521 369.578 40.8281H361.002C361.002 35.696 356.529 32.4715 349.911 32.4715C344.374 32.4715 338.87 34.7337 338.87 39.5451C338.87 43.9006 343.175 44.6266 350.552 45.7239L352.798 46.0446C360.918 47.2601 371.267 48.8302 371.267 60.0567C371.267 70.1352 362.893 75.2336 350.535 75.2336C337.081 75.2336 329.315 69.2067 329.315 58.8918H337.891C337.891 64.3954 342.702 67.6873 350.451 67.6873C357.069 67.6873 362.522 65.2732 362.522 60.0905C362.522 55.3128 358.099 54.6038 351.346 53.6246L348.51 53.2026C340.389 52.0209 330.125 50.569 330.125 39.9334C330.125 30.0574 338.954 24.9253 350.012 24.9253Z" fill="url(#paint13_linear_843_78)"/>
<path d="M400.501 56.8322V36.9959H408.976V74.2207H400.501V63.2643C398.813 70.8443 393.985 75.2336 387.046 75.2336C378.808 75.2336 374.098 69.0041 374.098 58.2165V36.9959H382.573V57.3725C382.573 64.2772 385.341 67.738 390.963 67.738C396.99 67.738 400.501 63.7876 400.501 56.8322Z" fill="url(#paint14_linear_843_78)"/>
<path d="M421.768 24.25V32.8936H413.024V24.25H421.768ZM421.633 36.9959V74.2207H413.159V36.9959H421.633Z" fill="url(#paint15_linear_843_78)"/>
<path d="M449.963 73.9337C446.942 74.7947 444.274 75.2167 441.928 75.2167C434.128 75.2167 429.975 70.5066 429.975 61.3904V43.8837H425.113V36.9959H429.975V28.4198H438.45V36.9959H449.963V43.8837H438.45V61.4072C438.45 66.016 440.088 68.1094 443.802 68.1094C445.27 68.1094 447.262 67.7718 449.963 67.0796V73.9337Z" fill="url(#paint16_linear_843_78)"/>
<path d="M479.146 61.7449H487.316C485.341 70.1521 478.724 75.2336 469.827 75.2336C458.752 75.2336 451.29 67.3159 451.29 55.5661C451.29 43.85 458.668 35.983 469.624 35.983C480.462 35.983 487.485 43.6474 487.485 55.4817C487.485 56.3595 487.452 57.2205 487.367 58.1828H459.664C460.373 64.3785 464.205 68.0925 470.063 68.0925C474.503 68.0925 477.491 65.9485 479.146 61.7449ZM459.782 52.1053H479.095C478.2 46.2135 474.942 43.0565 469.675 43.0565C464.273 43.0565 460.71 46.3992 459.782 52.1053Z" fill="url(#paint17_linear_843_78)"/>
<path d="M500.551 64.2265V74.2207H491.029V64.2265H500.551Z" fill="url(#paint18_linear_843_78)"/>
<path d="M513.501 24.25V32.8936H504.756V24.25H513.501ZM513.366 36.9959V74.2207H504.891V36.9959H513.366Z" fill="url(#paint19_linear_843_78)"/>
<path d="M516.726 55.5998C516.726 43.7825 524.239 35.983 535.263 35.983C546.287 35.983 553.799 43.7825 553.799 55.5998C553.799 67.4172 546.27 75.2336 535.263 75.2336C524.239 75.2336 516.726 67.4172 516.726 55.5998ZM525.235 55.5998C525.235 63.1967 529.017 67.738 535.28 67.738C541.526 67.738 545.291 63.2136 545.291 55.5998C545.291 47.9861 541.526 43.4786 535.28 43.4786C529.017 43.4786 525.235 48.0029 525.235 55.5998Z" fill="url(#paint20_linear_843_78)"/>
<defs>
<radialGradient id="paint0_angular_843_78" cx="0" cy="0" r="1" gradientUnits="userSpaceOnUse" gradientTransform="translate(54.843 53.1159) rotate(-9.49006) scale(54.895 54.895)">
<stop offset="0.196288" stop-color="#E378E0"/>
<stop offset="0.51" stop-color="#7ED1E4"/>
<stop offset="0.851711" stop-color="#85E5A0"/>
<stop offset="1" stop-color="#7ED1E4"/>
</radialGradient>
<radialGradient id="paint1_angular_843_78" cx="0" cy="0" r="1" gradientUnits="userSpaceOnUse" gradientTransform="translate(54.843 53.1159) rotate(-9.49006) scale(54.895 54.895)">
<stop offset="0.196288" stop-color="#E378E0"/>
<stop offset="0.51" stop-color="#7ED1E4"/>
<stop offset="0.851711" stop-color="#85E5A0"/>
<stop offset="1" stop-color="#7ED1E4"/>
</radialGradient>
<radialGradient id="paint2_angular_843_78" cx="0" cy="0" r="1" gradientUnits="userSpaceOnUse" gradientTransform="translate(54.843 53.1159) rotate(-9.49006) scale(54.895 54.895)">
<stop offset="0.196288" stop-color="#E378E0"/>
<stop offset="0.51" stop-color="#7ED1E4"/>
<stop offset="0.851711" stop-color="#85E5A0"/>
<stop offset="1" stop-color="#7ED1E4"/>
</radialGradient>
<radialGradient id="paint3_angular_843_78" cx="0" cy="0" r="1" gradientUnits="userSpaceOnUse" gradientTransform="translate(54.843 53.1159) rotate(-9.49006) scale(54.895 54.895)">
<stop offset="0.196288" stop-color="#E378E0"/>
<stop offset="0.51" stop-color="#7ED1E4"/>
<stop offset="0.851711" stop-color="#85E5A0"/>
<stop offset="1" stop-color="#7ED1E4"/>
</radialGradient>
<radialGradient id="paint4_angular_843_78" cx="0" cy="0" r="1" gradientUnits="userSpaceOnUse" gradientTransform="translate(54.843 53.1159) rotate(-9.49006) scale(54.895 54.895)">
<stop offset="0.196288" stop-color="#E378E0"/>
<stop offset="0.51" stop-color="#7ED1E4"/>
<stop offset="0.851711" stop-color="#85E5A0"/>
<stop offset="1" stop-color="#7ED1E4"/>
</radialGradient>
<radialGradient id="paint5_angular_843_78" cx="0" cy="0" r="1" gradientUnits="userSpaceOnUse" gradientTransform="translate(54.843 53.1159) rotate(-9.49006) scale(54.895 54.895)">
<stop offset="0.196288" stop-color="#E378E0"/>
<stop offset="0.51" stop-color="#7ED1E4"/>
<stop offset="0.851711" stop-color="#85E5A0"/>
<stop offset="1" stop-color="#7ED1E4"/>
</radialGradient>
<radialGradient id="paint6_angular_843_78" cx="0" cy="0" r="1" gradientUnits="userSpaceOnUse" gradientTransform="translate(54.843 53.1159) rotate(-9.49006) scale(54.895 54.895)">
<stop offset="0.196288" stop-color="#E378E0"/>
<stop offset="0.51" stop-color="#7ED1E4"/>
<stop offset="0.851711" stop-color="#85E5A0"/>
<stop offset="1" stop-color="#7ED1E4"/>
</radialGradient>
<radialGradient id="paint7_angular_843_78" cx="0" cy="0" r="1" gradientUnits="userSpaceOnUse" gradientTransform="translate(54.843 53.1159) rotate(-9.49006) scale(54.895 54.895)">
<stop offset="0.196288" stop-color="#E378E0"/>
<stop offset="0.51" stop-color="#7ED1E4"/>
<stop offset="0.851711" stop-color="#85E5A0"/>
<stop offset="1" stop-color="#7ED1E4"/>
</radialGradient>
<linearGradient id="paint8_linear_843_78" x1="156.09" y1="49.7418" x2="553.799" y2="49.7418" gradientUnits="userSpaceOnUse">
<stop stop-color="#84E49F"/>
<stop offset="0.49" stop-color="#76D7E4"/>
<stop offset="1" stop-color="#E476E0"/>
</linearGradient>
<linearGradient id="paint9_linear_843_78" x1="156.09" y1="49.7418" x2="553.799" y2="49.7418" gradientUnits="userSpaceOnUse">
<stop stop-color="#84E49F"/>
<stop offset="0.49" stop-color="#76D7E4"/>
<stop offset="1" stop-color="#E476E0"/>
</linearGradient>
<linearGradient id="paint10_linear_843_78" x1="156.09" y1="49.7418" x2="553.799" y2="49.7418" gradientUnits="userSpaceOnUse">
<stop stop-color="#84E49F"/>
<stop offset="0.49" stop-color="#76D7E4"/>
<stop offset="1" stop-color="#E476E0"/>
</linearGradient>
<linearGradient id="paint11_linear_843_78" x1="156.09" y1="49.7418" x2="553.799" y2="49.7418" gradientUnits="userSpaceOnUse">
<stop stop-color="#84E49F"/>
<stop offset="0.49" stop-color="#76D7E4"/>
<stop offset="1" stop-color="#E476E0"/>
</linearGradient>
<linearGradient id="paint12_linear_843_78" x1="156.09" y1="49.7418" x2="553.799" y2="49.7418" gradientUnits="userSpaceOnUse">
<stop stop-color="#84E49F"/>
<stop offset="0.49" stop-color="#76D7E4"/>
<stop offset="1" stop-color="#E476E0"/>
</linearGradient>
<linearGradient id="paint13_linear_843_78" x1="156.09" y1="49.7418" x2="553.799" y2="49.7418" gradientUnits="userSpaceOnUse">
<stop stop-color="#84E49F"/>
<stop offset="0.49" stop-color="#76D7E4"/>
<stop offset="1" stop-color="#E476E0"/>
</linearGradient>
<linearGradient id="paint14_linear_843_78" x1="156.09" y1="49.7418" x2="553.799" y2="49.7418" gradientUnits="userSpaceOnUse">
<stop stop-color="#84E49F"/>
<stop offset="0.49" stop-color="#76D7E4"/>
<stop offset="1" stop-color="#E476E0"/>
</linearGradient>
<linearGradient id="paint15_linear_843_78" x1="156.09" y1="49.7418" x2="553.799" y2="49.7418" gradientUnits="userSpaceOnUse">
<stop stop-color="#84E49F"/>
<stop offset="0.49" stop-color="#76D7E4"/>
<stop offset="1" stop-color="#E476E0"/>
</linearGradient>
<linearGradient id="paint16_linear_843_78" x1="156.09" y1="49.7418" x2="553.799" y2="49.7418" gradientUnits="userSpaceOnUse">
<stop stop-color="#84E49F"/>
<stop offset="0.49" stop-color="#76D7E4"/>
<stop offset="1" stop-color="#E476E0"/>
</linearGradient>
<linearGradient id="paint17_linear_843_78" x1="156.09" y1="49.7418" x2="553.799" y2="49.7418" gradientUnits="userSpaceOnUse">
<stop stop-color="#84E49F"/>
<stop offset="0.49" stop-color="#76D7E4"/>
<stop offset="1" stop-color="#E476E0"/>
</linearGradient>
<linearGradient id="paint18_linear_843_78" x1="156.09" y1="49.7418" x2="553.799" y2="49.7418" gradientUnits="userSpaceOnUse">
<stop stop-color="#84E49F"/>
<stop offset="0.49" stop-color="#76D7E4"/>
<stop offset="1" stop-color="#E476E0"/>
</linearGradient>
<linearGradient id="paint19_linear_843_78" x1="156.09" y1="49.7418" x2="553.799" y2="49.7418" gradientUnits="userSpaceOnUse">
<stop stop-color="#84E49F"/>
<stop offset="0.49" stop-color="#76D7E4"/>
<stop offset="1" stop-color="#E476E0"/>
</linearGradient>
<linearGradient id="paint20_linear_843_78" x1="156.09" y1="49.7418" x2="553.799" y2="49.7418" gradientUnits="userSpaceOnUse">
<stop stop-color="#84E49F"/>
<stop offset="0.49" stop-color="#76D7E4"/>
<stop offset="1" stop-color="#E476E0"/>
</linearGradient>
</defs>
</svg>
